<?xml version="1.0" encoding="UTF-8" standalone="no"?>
<!-- Created with Inkscape (http://www.inkscape.org/) -->

<svg
   xmlns:dc="http://purl.org/dc/elements/1.1/"
   xmlns:cc="http://creativecommons.org/ns#"
   xmlns:rdf="http://www.w3.org/1999/02/22-rdf-syntax-ns#"
   xmlns:svg="http://www.w3.org/2000/svg"
   xmlns="http://www.w3.org/2000/svg"
   xmlns:sodipodi="http://sodipodi.sourceforge.net/DTD/sodipodi-0.dtd"
   xmlns:inkscape="http://www.inkscape.org/namespaces/inkscape"
   width="77.824692mm"
   height="27.408323mm"
   viewBox="0 0 275.75678 97.116106"
   id="svg5401"
   version="1.1"
   inkscape:version="0.91 r13725"
   sodipodi:docname="drawing.svg">
  <defs
     id="defs5403">
    <clipPath
       clipPathUnits="userSpaceOnUse"
       id="clipPath4762">
      <path
         d="m 311.118,759.83 226.246,0 0,-78.068 -226.246,0 0,78.068 z"
         id="path4764"
         inkscape:connector-curvature="0" />
    </clipPath>
    <clipPath
       clipPathUnits="userSpaceOnUse"
       id="clipPath4846">
      <path
         d="m 311.118,759.83 226.246,0 0,-78.068 -226.246,0 0,78.068 z"
         id="path4848"
         inkscape:connector-curvature="0" />
    </clipPath>
  </defs>
  <sodipodi:namedview
     id="base"
     pagecolor="#ffffff"
     bordercolor="#666666"
     borderopacity="1.0"
     inkscape:pageopacity="0.0"
     inkscape:pageshadow="2"
     inkscape:zoom="3.959798"
     inkscape:cx="132.75813"
     inkscape:cy="50.751109"
     inkscape:document-units="px"
     inkscape:current-layer="layer1"
     showgrid="false"
     inkscape:window-width="1920"
     inkscape:window-height="1200"
     inkscape:window-x="0"
     inkscape:window-y="0"
     inkscape:window-maximized="0"
     fit-margin-top="0"
     fit-margin-left="0"
     fit-margin-right="0"
     fit-margin-bottom="0" />
  <metadata
     id="metadata5406">
    <rdf:RDF>
      <cc:Work
         rdf:about="">
        <dc:format>image/svg+xml</dc:format>
        <dc:type
           rdf:resource="http://purl.org/dc/dcmitype/StillImage" />
        <dc:title></dc:title>
      </cc:Work>
    </rdf:RDF>
  </metadata>
  <g
     inkscape:label="Layer 1"
     inkscape:groupmode="layer"
     id="layer1"
     transform="translate(-219.26447,-835.23269)">
    <g
       transform="matrix(1.25,0,0,-1.25,-169.62122,1784.5513)"
       id="g5274">
      <g
         id="g4758">
        <g
           clip-path="url(#clipPath4762)"
           id="g4760">
          <path
             inkscape:connector-curvature="0"
             id="path4766"
             style="fill:none;stroke:#231f20;stroke-width:0.227;stroke-linecap:round;stroke-linejoin:round;stroke-miterlimit:10;stroke-dasharray:0.909, 0.909;stroke-dashoffset:0;stroke-opacity:1"
             d="m 529.722,709.455 1.531,-1.582 m -2.959,3.062 1.428,-1.48 m -2.921,3.023 1.493,-1.543 m -2.896,2.985 1.403,-1.442 m -2.972,3.062 1.569,-1.62 m -2.934,3.036 1.365,-1.416 m -2.845,2.96 1.48,-1.544 m -2.986,3.087 1.506,-1.543 m -2.96,3.061 1.454,-1.518 m -2.985,3.088 1.531,-1.57 m -2.985,3.074 1.454,-1.504 m -2.934,3.048 1.48,-1.544 m -2.909,3.011 1.429,-1.467 m -2.934,3.036 1.505,-1.569 m -2.883,2.998 1.378,-1.429 m -2.908,2.998 1.53,-1.569 m -2.959,3.049 1.429,-1.48 m -3.024,3.126 1.595,-1.646 m -3.023,3.126 1.428,-1.48 m -2.908,3.01 1.48,-1.53 m -2.998,3.1 1.518,-1.57 m -2.973,3.088 1.455,-1.518 m -2.82,2.921 1.365,-1.403 m -2.143,2.207 0.778,-0.804 m -1.556,1.531 0.778,-0.727 m -1.531,-0.039 0.753,0.766 m -1.493,-1.544 0.74,0.778 m -2.13,-2.219 1.39,1.441 m -2.908,-3.011 1.518,1.57 m -2.972,-3.062 1.454,1.492 m -2.973,-3.074 1.519,1.582 m -2.909,-3.023 1.39,1.441 m -2.959,-3.062 1.569,1.621 m -2.921,-3.011 1.352,1.39 m -2.947,-3.036 1.595,1.646 m -2.934,-3.036 1.339,1.39 m -2.807,-2.908 1.468,1.518 m -2.999,-3.113 1.531,1.595 m -3.061,-3.164 1.53,1.569 m -2.883,-2.972 1.353,1.403 m -2.883,-2.998 1.53,1.595 m -3.023,-3.139 1.493,1.544 m -2.998,-3.087 1.505,1.543 m -2.947,-3.049 1.442,1.506 m -2.845,-2.947 1.403,1.441 m -2.908,-3.01 1.505,1.569 m -3.023,-3.138 1.518,1.569 m -3.024,-3.126 1.506,1.557 m -2.845,-2.947 1.339,1.39 m -2.883,-2.972 1.544,1.582" />
          <path
             inkscape:connector-curvature="0"
             id="path4768"
             style="fill:none;stroke:#231f20;stroke-width:0.454;stroke-linecap:round;stroke-linejoin:round;stroke-miterlimit:10;stroke-dasharray:none;stroke-opacity:1"
             d="m 529.722,708.217 1.531,-0.344 m -2.959,1.365 1.428,-1.021 m -2.921,2.845 1.493,-1.824 m -2.896,4.35 1.403,-2.526 m -2.972,6.391 1.569,-3.865 m -2.934,8.279 1.365,-4.414 m -2.845,10.525 1.48,-6.111 m -2.986,13.893 1.506,-7.782 m -2.96,17.324 1.454,-9.542 m -2.985,21.993 1.531,-12.451 m -1.633,13.599 0.102,-1.148 m -41.103,0.306 0.09,0.842 m -1.62,-13.459 1.53,12.617 m -3.023,-22.35 1.493,9.733 m -2.998,-17.515 1.505,7.782 m -2.947,-13.739 1.442,5.957 m -2.845,-10.499 1.403,4.542 m -2.908,-8.28 1.505,3.738 m -3.023,-6.468 1.518,2.73 m -3.024,-4.541 1.506,1.811 m -2.845,-2.73 1.339,0.919 m -2.883,-1.276 1.544,0.357" />
          <path
             inkscape:connector-curvature="0"
             id="path4770"
             style="fill:none;stroke:#231f20;stroke-width:0.90899998;stroke-linecap:round;stroke-linejoin:round;stroke-miterlimit:10;stroke-dasharray:none;stroke-opacity:1"
             d="m 529.722,707.873 1.531,0 m -2.959,0.025 1.428,-0.025 m -2.921,0.128 1.493,-0.103 m -2.896,0.269 1.403,-0.166 m -2.972,0.51 1.569,-0.344 m -2.934,0.79 1.365,-0.446 m -2.845,1.161 1.48,-0.715 m -2.986,1.723 1.506,-1.008 m -2.96,2.36 1.454,-1.352 m -2.985,3.214 1.531,-1.862 m -2.985,4.222 1.454,-2.36 m -2.934,5.473 1.48,-3.113 m -2.909,6.966 1.429,-3.853 m -2.934,9.147 1.505,-5.294 m -2.883,11.57 1.378,-6.276 m -2.908,15.359 1.53,-9.083 m -2.959,20.501 1.429,-11.418 m -1.748,15.028 0.319,-3.61 m -20.73,-0.128 0.331,3.738 m -1.683,-14.556 1.352,10.818 m -2.947,-20.373 1.595,9.555 m -2.934,-15.653 1.339,6.098 m -2.807,-11.328 1.468,5.23 m -2.999,-9.388 1.531,4.158 m -3.061,-7.335 1.53,3.177 m -2.883,-5.359 1.353,2.182 m -2.883,-4.07 1.53,1.888 m -3.023,-3.265 1.493,1.377 m -2.998,-2.385 1.505,1.008 m -2.947,-1.71 1.442,0.702 m -2.845,-1.174 1.403,0.472 m -2.908,-0.791 1.505,0.319 m -3.023,-0.51 1.518,0.191 m -3.024,-0.281 1.506,0.09 m -2.845,-0.115 1.339,0.025 m -2.883,-0.025 1.544,0" />
          <path
             inkscape:connector-curvature="0"
             id="path4772"
             style="fill:none;stroke:#231f20;stroke-width:0.29800001;stroke-linecap:round;stroke-linejoin:round;stroke-miterlimit:10;stroke-dasharray:none;stroke-opacity:1"
             d="m 495.929,707.873 0,51.028" />
        </g>
      </g>
      <path
         inkscape:connector-curvature="0"
         id="path4774"
         style="fill:none;stroke:#231f20;stroke-width:0.12800001;stroke-linecap:round;stroke-linejoin:round;stroke-miterlimit:10;stroke-dasharray:none;stroke-opacity:1"
         d="m 495.368,707.873 0.561,0 m -0.28,1.02 0.28,0 m -0.28,1.021 0.28,0 m -0.28,1.021 0.28,0 m -0.28,1.007 0.28,0 m -0.561,1.021 0.561,0 m -0.28,1.034 0.28,0 m -0.28,1.02 0.28,0 m -0.28,1.02 0.28,0 m -0.28,1.008 0.28,0 m -0.561,1.021 0.561,0 m -0.28,1.033 0.28,0 m -0.28,1.021 0.28,0 m -0.28,1.02 0.28,0 m -0.28,1.021 0.28,0 m -0.561,1.021 0.561,0 m -0.28,1.02 0.28,0 m -0.28,1.02 0.28,0 m -0.28,1.021 0.28,0 m -0.28,1.021 0.28,0 m -0.561,1.02 0.561,0 m -0.28,1.008 0.28,0 m -0.28,1.033 0.28,0 m -0.28,1.021 0.28,0 m -0.28,1.02 0.28,0 m -0.561,1.021 0.561,0 m -0.28,1.021 0.28,0 m -0.28,1.02 0.28,0 m -0.28,1.021 0.28,0 m -0.28,1.02 0.28,0 m -0.561,1.021 0.561,0 m -0.28,1.02 0.28,0 m -0.28,1.021 0.28,0 m -0.28,1.02 0.28,0 m -0.28,1.021 0.28,0 m -0.561,1.021 0.561,0 m -0.28,1.02 0.28,0 m -0.28,1.021 0.28,0 m -0.28,1.02 0.28,0 m -0.28,1.021 0.28,0 m -0.561,1.02 0.561,0 m -0.28,1.021 0.28,0 m -0.28,1.021 0.28,0 m -0.28,1.02 0.28,0 m -0.28,1.008 0.28,0 m -0.561,1.033 0.561,0 m -0.28,1.021 0.28,0 m -0.28,1.02 0.28,0 m -0.28,1.021 0.28,0 m -0.28,1.02 0.28,0 m -0.561,1.021 0.561,0" />
      <path
         inkscape:connector-curvature="0"
         id="path4776"
         style="fill:none;stroke:#231f20;stroke-width:0.29800001;stroke-linecap:round;stroke-linejoin:round;stroke-miterlimit:10;stroke-dasharray:none;stroke-opacity:1"
         d="m 460.605,707.873 70.648,0" />
      <path
         inkscape:connector-curvature="0"
         id="path4778"
         style="fill:none;stroke:#231f20;stroke-width:0.12800001;stroke-linecap:round;stroke-linejoin:round;stroke-miterlimit:10;stroke-dasharray:none;stroke-opacity:1"
         d="m 460.605,707.439 0,0.434 m 1.416,-0.217 0,0.217 m 1.404,-0.217 0,0.217 m 1.416,-0.217 0,0.217 m 1.416,-0.217 0,0.217 m 1.415,-0.434 0,0.434 m 1.404,-0.217 0,0.217 m 1.416,-0.217 0,0.217 m 1.416,-0.217 0,0.217 m 1.416,-0.217 0,0.217 m 1.403,-0.434 0,0.434 m 1.416,-0.217 0,0.217 m 1.416,-0.217 0,0.217 m 1.416,-0.217 0,0.217 m 1.416,-0.217 0,0.217 m 1.403,-0.434 0,0.434 m 1.417,-0.217 0,0.217 m 1.415,-0.217 0,0.217 m 1.417,-0.217 0,0.217 m 1.403,-0.217 0,0.217 m 1.416,-0.434 0,0.434 m 1.416,-0.217 0,0.217 m 1.416,-0.217 0,0.217 m 1.403,-0.217 0,0.217 m 1.416,-0.217 0,0.217 m 2.832,-0.217 0,0.217 m 1.417,-0.217 0,0.217 m 1.402,-0.217 0,0.217 m 1.417,-0.217 0,0.217 m 1.416,-0.434 0,0.434 m 1.416,-0.217 0,0.217 m 1.403,-0.217 0,0.217 m 1.416,-0.217 0,0.217 m 1.416,-0.217 0,0.217 m 1.416,-0.434 0,0.434 m 1.403,-0.217 0,0.217 m 1.416,-0.217 0,0.217 m 1.416,-0.217 0,0.217 m 1.416,-0.217 0,0.217 m 1.416,-0.434 0,0.434 m 1.403,-0.217 0,0.217 m 1.417,-0.217 0,0.217 m 1.416,-0.217 0,0.217 m 1.416,-0.217 0,0.217 m 1.403,-0.434 0,0.434 m 1.416,-0.217 0,0.217 m 1.416,-0.217 0,0.217 m 1.416,-0.217 0,0.217 m 1.403,-0.217 0,0.217 m 1.416,-0.434 0,0.434" />
      <text
         id="text4780"
         style="font-variant:normal;font-weight:normal;font-size:1.69669998px;font-family:Helvetica;-inkscape-font-specification:Helvetica;writing-mode:lr-tb;fill:#231f20;fill-opacity:1;fill-rule:nonzero;stroke:none"
         transform="matrix(1,0,0,-1,494.1817,706.5718)">
        <tspan
           id="tspan4782"
           y="0"
           x="0">0</tspan>
        <tspan
           id="tspan4784"
           sodipodi:role="line"
           y="-5.7407846"
           x="-1.5565525 -0.61335707 -0.14184412">0.2</tspan>
        <tspan
           id="tspan4786"
           sodipodi:role="line"
           y="-10.843779"
           x="-1.5950676 -0.65170246 -0.18001987">0.4</tspan>
        <tspan
           id="tspan4788"
           sodipodi:role="line"
           y="-15.95933"
           x="-1.5818334 -0.63880754 -0.16746429">0.6</tspan>
        <tspan
           id="tspan4790"
           sodipodi:role="line"
           y="-21.062494"
           x="-1.5818334 -0.63880754 -0.16746429">0.8</tspan>
        <tspan
           id="tspan4792"
           y="-26.16515"
           x="0.29318976">1</tspan>
        <tspan
           id="tspan4794"
           sodipodi:role="line"
           y="-31.268314"
           x="-1.5563829 -0.61318737 -0.14167444">1.2</tspan>
        <tspan
           id="tspan4796"
           sodipodi:role="line"
           y="-36.37114"
           x="-1.594898 -0.65153283 -0.17985021">1.4</tspan>
        <tspan
           id="tspan4798"
           sodipodi:role="line"
           y="-41.474136"
           x="-1.5816637 -0.6386379 -0.16729462">1.6</tspan>
        <tspan
           id="tspan4800"
           sodipodi:role="line"
           y="-46.577129"
           x="-1.5816637 -0.6386379 -0.16729462">1.8</tspan>
        <tspan
           id="tspan4802"
           y="-51.680126"
           x="0.02528083">2</tspan>
        <tspan
           id="tspan4804"
           sodipodi:role="line"
           y="0.61216938"
           x="-34.419086 -33.475719 -28.295527 -27.352161 -26.408796 -25.937113 -21.240479 -20.297113 -19.353748 -18.882065 -14.172705 -13.229 -12.285635 -11.813952 -7.0923758 -6.1486712 -5.2053061 -4.7336235 7.5657549 8.50912 8.9808025 14.620633 15.563829 16.035511 21.688745 22.632113 23.103794 28.743626 29.686821 30.158503 36.755272">–1–0.8–0.6–0.4–0.20.20.40.60.81</tspan>
      </text>
      <path
         inkscape:connector-curvature="0"
         id="path4806"
         style="fill:none;stroke:#231f20;stroke-width:0.227;stroke-linecap:round;stroke-linejoin:round;stroke-miterlimit:10;stroke-dasharray:0.909, 0.909;stroke-dashoffset:0;stroke-opacity:1"
         d="m 454.962,708.25 1.53,-0.344 m -2.96,0.625 1.43,-0.281 m -2.922,0.536 1.492,-0.255 m -2.895,0.459 1.403,-0.204 m -2.972,0.37 1.569,-0.166 m -2.935,0.268 1.366,-0.102 m -2.846,0.14 1.48,-0.038 m -2.985,0 1.505,0.038 m -2.959,-0.166 1.454,0.128 m -2.985,-0.395 1.531,0.267 m -2.985,-0.65 1.454,0.383 m -2.934,-0.97 1.48,0.587 m -2.909,-1.365 1.429,0.778 m -2.935,-1.9 1.506,1.122 m -2.883,-2.513 1.377,1.391 m -2.908,-3.483 1.531,2.092 m -2.96,-4.784 1.429,2.692 m -1.582,-3.1 0.153,0.408 m -20.73,0.026 0.166,-0.434 m -1.518,2.998 1.352,-2.564 m -2.947,4.758 1.595,-2.194 m -2.934,3.546 1.339,-1.352 m -2.806,2.462 1.467,-1.11 m -2.998,1.952 1.531,-0.842 m -3.062,1.429 1.531,-0.587 m -2.883,0.957 1.352,-0.37 m -2.883,0.637 1.531,-0.267 m -3.023,0.395 1.492,-0.128 m -2.998,0.166 1.506,-0.038 m -2.947,0 1.441,0.038 m -2.845,-0.14 1.404,0.102 m -2.909,-0.268 1.505,0.166 m -3.023,-0.383 1.518,0.217 m -3.023,-0.484 1.505,0.267 m -2.845,-0.523 1.34,0.256 m -2.883,-0.6 1.543,0.344" />
      <path
         inkscape:connector-curvature="0"
         id="path4808"
         style="fill:none;stroke:#231f20;stroke-width:0.454;stroke-linecap:round;stroke-linejoin:round;stroke-miterlimit:10;stroke-dasharray:none;stroke-opacity:1"
         d="m 454.962,707.982 1.53,-0.076 m -2.96,0.293 1.43,-0.217 m -2.922,0.575 1.492,-0.358 m -2.895,0.829 1.403,-0.471 m -2.972,1.148 1.569,-0.677 m -2.935,1.391 1.366,-0.714 m -2.846,1.633 1.48,-0.919 m -2.985,2.003 1.505,-1.084 m -2.959,2.27 1.454,-1.186 m -2.985,2.577 1.531,-1.391 m -2.985,2.845 1.454,-1.454 m -2.934,3.1 1.48,-1.646 m -2.909,3.355 1.429,-1.709 m -2.935,3.661 1.506,-1.952 m -2.883,3.866 1.377,-1.914 m -2.908,4.172 1.531,-2.258 m -2.96,4.516 1.429,-2.258 m -3.023,4.924 1.594,-2.666 m -3.023,5.204 1.429,-2.538 m -2.909,5.307 1.48,-2.769 m -2.998,5.754 1.518,-2.985 m -2.972,6.008 1.454,-3.023 m -2.819,5.944 1.365,-2.921 m -2.144,4.656 0.779,-1.735 m -1.557,3.343 0.778,-1.608 m -1.53,-0.101 0.752,1.709 m -1.493,-3.368 0.741,1.659 m -2.131,-4.657 1.39,2.998 m -2.908,-6.111 1.518,3.113 m -2.972,-5.97 1.454,2.857 m -2.972,-5.702 1.518,2.845 m -2.909,-5.294 1.391,2.449 m -2.96,-5.077 1.569,2.628 m -2.921,-4.771 1.352,2.143 m -2.947,-4.503 1.595,2.36 m -2.934,-4.223 1.339,1.863 m -2.806,-3.776 1.467,1.913 m -2.998,-3.738 1.531,1.825 m -3.062,-3.508 1.531,1.683 m -2.883,-3.049 1.352,1.366 m -2.883,-2.769 1.531,1.403 m -3.023,-2.615 1.492,1.212 m -2.998,-2.283 1.506,1.071 m -2.947,-1.977 1.441,0.906 m -2.845,-1.646 1.404,0.74 m -2.909,-1.39 1.505,0.65 m -3.023,-1.161 1.518,0.511 m -3.023,-0.868 1.505,0.357 m -2.845,-0.549 1.34,0.192 m -2.883,-0.268 1.543,0.076" />
      <path
         inkscape:connector-curvature="0"
         id="path4810"
         style="fill:none;stroke:#231f20;stroke-width:0.90899998;stroke-linecap:round;stroke-linejoin:round;stroke-miterlimit:10;stroke-dasharray:none;stroke-opacity:1"
         d="m 454.962,707.906 1.53,0 m -2.96,0.013 1.43,-0.013 m -2.922,0.026 1.492,-0.013 m -2.895,0.051 1.403,-0.038 m -2.972,0.102 1.569,-0.064 m -2.935,0.14 1.366,-0.076 m -2.846,0.204 1.48,-0.128 m -2.985,0.294 1.505,-0.166 m -2.959,0.382 1.454,-0.216 m -2.985,0.497 1.531,-0.281 m -2.985,0.6 1.454,-0.319 m -2.934,0.714 1.48,-0.395 m -2.909,0.829 1.429,-0.434 m -2.935,0.996 1.506,-0.562 m -2.883,1.135 1.377,-0.573 m -2.908,1.301 1.531,-0.728 m -2.96,1.506 1.429,-0.778 m -3.023,1.748 1.594,-0.97 m -3.023,1.952 1.429,-0.982 m -2.909,2.104 1.48,-1.122 m -2.233,1.748 0.753,-0.626 m -1.518,1.276 0.765,-0.65 m -1.492,1.313 0.727,-0.663 m -1.454,1.352 0.727,-0.689 m -1.404,1.365 0.677,-0.676 m -1.365,1.378 0.688,-0.702 m -1.467,1.544 0.779,-0.842 m -1.557,1.633 0.778,-0.791 m -1.53,-0.051 0.752,0.842 m -1.493,-1.646 0.741,0.804 m -1.442,-1.518 0.701,0.714 m -1.39,-1.403 0.689,0.689 m -1.454,-1.404 0.765,0.715 m -1.518,-1.403 0.753,0.688 m -1.48,-1.301 0.727,0.613 m -1.454,-1.212 0.727,0.599 m -2.245,-1.747 1.518,1.148 m -2.909,-2.105 1.391,0.957 m -2.96,-1.914 1.569,0.957 m -2.921,-1.684 1.352,0.727 m -2.947,-1.493 1.595,0.766 m -2.934,-1.327 1.339,0.561 m -2.806,-1.097 1.467,0.536 m -2.998,-1.02 1.531,0.484 m -3.062,-0.893 1.531,0.409 m -2.883,-0.702 1.352,0.293 m -2.883,-0.574 1.531,0.281 m -3.023,-0.497 1.492,0.216 m -2.998,-0.382 1.506,0.166 m -2.947,-0.281 1.441,0.115 m -2.845,-0.204 1.404,0.089 m -2.909,-0.153 1.505,0.064 m -3.023,-0.102 1.518,0.038 m -3.023,-0.051 1.505,0.013 m -2.845,-0.026 1.34,0.013 m -2.883,-0.013 1.543,0" />
      <path
         inkscape:connector-curvature="0"
         id="path4812"
         style="fill:none;stroke:#231f20;stroke-width:0.29800001;stroke-linecap:round;stroke-linejoin:round;stroke-miterlimit:10;stroke-dasharray:none;stroke-opacity:1"
         d="m 421.167,699.41 0,51.028" />
      <path
         inkscape:connector-curvature="0"
         id="path4814"
         style="fill:none;stroke:#231f20;stroke-width:0.12800001;stroke-linecap:round;stroke-linejoin:round;stroke-miterlimit:10;stroke-dasharray:none;stroke-opacity:1"
         d="m 420.887,699.971 0.28,0 m -0.28,1.136 0.28,0 m -0.561,1.135 0.561,0 m -0.28,1.135 0.28,0 m -0.28,1.136 0.28,0 m -0.28,1.122 0.28,0 m -0.28,1.135 0.28,0 m -0.561,1.136 0.561,0 m -0.28,1.136 0.28,0 m -0.28,1.135 0.28,0 m -0.28,1.135 0.28,0 m -0.28,1.135 0.28,0 m -0.561,1.136 0.561,0 m -0.28,1.135 0.28,0 m -0.28,1.123 0.28,0 m -0.28,1.135 0.28,0 m -0.28,1.135 0.28,0 m -0.561,1.136 0.561,0 m -0.28,1.136 0.28,0 m -0.28,1.135 0.28,0 m -0.28,1.135 0.28,0 m -0.28,1.136 0.28,0 m -0.561,1.135 0.561,0 m -0.28,1.122 0.28,0 m -0.28,1.136 0.28,0 m -0.28,1.135 0.28,0 m -0.28,1.136 0.28,0 m -0.561,1.135 0.561,0 m -0.28,1.135 0.28,0 m -0.28,1.136 0.28,0 m -0.28,1.135 0.28,0 m -0.28,1.135 0.28,0 m -0.561,1.123 0.561,0 m -0.28,1.135 0.28,0 m -0.28,1.136 0.28,0 m -0.28,1.135 0.28,0 m -0.28,1.135 0.28,0 m -0.561,1.136 0.561,0 m -0.28,1.135 0.28,0 m -0.28,1.136 0.28,0 m -0.28,1.135 0.28,0 m -0.28,1.123 0.28,0 m -0.561,1.135 0.561,0 m -0.28,1.135 0.28,0 m -0.28,1.136 0.28,0" />
      <path
         inkscape:connector-curvature="0"
         id="path4816"
         style="fill:none;stroke:#231f20;stroke-width:0.29800001;stroke-linecap:round;stroke-linejoin:round;stroke-miterlimit:10;stroke-dasharray:none;stroke-opacity:1"
         d="m 385.844,707.906 70.648,0" />
      <path
         inkscape:connector-curvature="0"
         id="path4818"
         style="fill:none;stroke:#231f20;stroke-width:0.12800001;stroke-linecap:round;stroke-linejoin:round;stroke-miterlimit:10;stroke-dasharray:none;stroke-opacity:1"
         d="m 385.844,707.485 0,0.421 m 1.416,-0.204 0,0.204 m 1.403,-0.204 0,0.204 m 1.416,-0.204 0,0.204 m 1.416,-0.204 0,0.204 m 1.416,-0.421 0,0.421 m 1.403,-0.204 0,0.204 m 1.416,-0.204 0,0.204 m 1.416,-0.204 0,0.204 m 1.416,-0.204 0,0.204 m 1.403,-0.421 0,0.421 m 1.416,-0.204 0,0.204 m 1.416,-0.204 0,0.204 m 1.417,-0.204 0,0.204 m 1.416,-0.204 0,0.204 m 1.403,-0.421 0,0.421 m 1.416,-0.204 0,0.204 m 1.416,-0.204 0,0.204 m 1.416,-0.204 0,0.204 m 1.403,-0.204 0,0.204 m 1.416,-0.421 0,0.421 m 1.416,-0.204 0,0.204 m 1.416,-0.204 0,0.204 m 1.403,-0.204 0,0.204 m 1.416,-0.204 0,0.204 m 2.833,-0.204 0,0.204 m 1.416,-0.204 0,0.204 m 1.403,-0.204 0,0.204 m 1.416,-0.204 0,0.204 m 1.416,-0.421 0,0.421 m 1.416,-0.204 0,0.204 m 1.403,-0.204 0,0.204 m 1.416,-0.204 0,0.204 m 1.416,-0.204 0,0.204 m 1.416,-0.421 0,0.421 m 1.404,-0.204 0,0.204 m 1.416,-0.204 0,0.204 m 1.416,-0.204 0,0.204 m 1.416,-0.204 0,0.204 m 1.416,-0.421 0,0.421 m 1.403,-0.204 0,0.204 m 1.416,-0.204 0,0.204 m 1.417,-0.204 0,0.204 m 1.416,-0.204 0,0.204 m 1.403,-0.421 0,0.421 m 1.416,-0.204 0,0.204 m 1.416,-0.204 0,0.204 m 1.416,-0.204 0,0.204 m 1.403,-0.204 0,0.204 m 1.416,-0.421 0,0.421" />
      <text
         id="text4820"
         style="font-variant:normal;font-weight:normal;font-size:1.69669998px;font-family:Helvetica;-inkscape-font-specification:Helvetica;writing-mode:lr-tb;fill:#231f20;fill-opacity:1;fill-rule:nonzero;stroke:none"
         transform="matrix(1,0,0,-1,418.3994,701.5912)">
        <tspan
           id="tspan4822"
           sodipodi:role="line"
           y="0"
           x="0 0.94370455">–2</tspan>
        <tspan
           id="tspan4824"
           y="-5.0134091"
           x="1.0203954">0</tspan>
        <tspan
           id="tspan4826"
           y="-11.341252"
           x="1.0458459">2</tspan>
        <tspan
           id="tspan4828"
           y="-17.005686"
           x="1.0076702">4</tspan>
        <tspan
           id="tspan4830"
           y="-22.682505"
           x="1.0203954">6</tspan>
        <tspan
           id="tspan4832"
           y="-28.346937"
           x="1.0203954">8</tspan>
        <tspan
           id="tspan4834"
           sodipodi:role="line"
           y="-34.0112"
           x="-0.0254505 0.91774505">10</tspan>
        <tspan
           id="tspan4836"
           sodipodi:role="line"
           y="-39.688187"
           x="-0 0.94319552">12</tspan>
        <tspan
           id="tspan4838"
           sodipodi:role="line"
           y="-45.352283"
           x="-0.0254505 0.91774505">14</tspan>
        <tspan
           id="tspan4840"
           sodipodi:role="line"
           y="-4.4143043"
           x="-33.398861 -32.455494 -27.275301 -26.331936 -25.388571 -24.916887 -20.220253 -19.276888 -18.333523 -17.861839 -13.152479 -12.208775 -11.265409 -10.793727 -6.0721498 -5.1284456 -4.1850801 -3.7133975 8.5859804 9.5293455 10.001028 15.64052 16.583715 17.055399 22.708633 23.651999 24.12368 29.764021 30.707216 31.178898 37.775497">–1–0.8–0.6–0.4–0.20.20.40.60.81</tspan>
      </text>
      <g
         id="g4842">
        <g
           clip-path="url(#clipPath4846)"
           id="g4844">
          <path
             inkscape:connector-curvature="0"
             id="path4850"
             style="fill:none;stroke:#231f20;stroke-width:0.227;stroke-linecap:round;stroke-linejoin:round;stroke-miterlimit:10;stroke-dasharray:0.909, 0.909;stroke-dashoffset:0;stroke-opacity:1"
             d="m 381.077,710.41 1.531,-2.424 m -2.96,3.866 1.429,-1.442 m -2.181,1.914 0.752,-0.472 m -1.492,0.778 0.74,-0.306 m -1.097,0.382 0.357,-0.076 m -0.702,0.127 0.345,-0.051 m -0.689,0.064 0.344,-0.013 m -0.702,-0.012 0.358,0.025 m -1.136,-0.179 0.778,0.154 m -1.568,-0.46 0.79,0.306 m -1.466,-0.676 0.676,0.37 m -1.365,-0.829 0.689,0.459 m -2.17,-1.76 1.481,1.301 m -2.986,-2.947 1.505,1.646 m -2.959,-3.508 1.454,1.862 m -2.985,-3.992 1.531,2.13 m -2.985,-4.287 1.454,2.157 m -2.933,-4.428 1.479,2.271 m -2.909,-4.465 1.43,2.194 m -2.935,-4.477 1.505,2.283 m -2.883,-4.311 1.378,2.028 m -2.909,-4.134 1.531,2.106 m -2.959,-3.942 1.428,1.836 m -3.023,-3.66 1.595,1.824 m -3.024,-3.253 1.429,1.429 m -2.908,-2.68 1.479,1.251 m -2.998,-2.258 1.519,1.007 m -2.973,-1.696 1.454,0.689 m -2.13,-0.919 0.676,0.23 m -1.365,-0.396 0.689,0.166 m -1.467,-0.293 0.778,0.127 m -1.556,-0.165 0.778,0.038 m -1.531,0.012 0.753,-0.05 m -1.493,0.165 0.74,-0.115 m -1.442,0.281 0.702,-0.166 m -1.39,0.408 0.688,-0.242 m -2.206,0.982 1.518,-0.74 m -2.973,1.71 1.455,-0.97 m -2.973,2.258 1.518,-1.288 m -2.908,2.692 1.39,-1.404 m -2.96,3.215 1.57,-1.811 m -2.922,3.533 1.352,-1.722 m -2.946,3.917 1.594,-2.195 m -2.934,4.159 1.34,-1.964 m -2.807,4.197 1.467,-2.233 m -2.998,4.58 1.531,-2.347 m -3.062,4.682 1.531,-2.335 m -2.883,4.337 1.352,-2.002 m -2.883,4.158 1.531,-2.156 m -3.023,4.057 1.492,-1.901 m -2.997,3.534 1.505,-1.633 m -2.947,2.909 1.442,-1.276 m -2.143,1.76 0.701,-0.484 m -1.403,0.867 0.702,-0.383 m -1.455,0.664 0.753,-0.281 m -1.506,0.447 0.753,-0.166 m -1.135,0.191 0.382,-0.025 m -0.765,0.012 0.383,0.013 m -0.766,-0.076 0.383,0.063 m -0.753,-0.153 0.37,0.09 m -1.122,-0.409 0.752,0.319 m -1.505,-0.816 0.753,0.497 m -2.093,-1.875 1.34,1.378 m -2.883,-3.802 1.543,2.424" />
          <path
             inkscape:connector-curvature="0"
             id="path4852"
             style="fill:none;stroke:#231f20;stroke-width:0.454;stroke-linecap:butt;stroke-linejoin:miter;stroke-miterlimit:4;stroke-dasharray:none;stroke-opacity:1"
             d="m 382.417,707.999 0.191,-0.013 m -0.383,0.038 0.192,-0.025 m -0.383,0.077 0.191,-0.052 m -0.383,0.115 0.192,-0.063 m -0.574,0.242 0.382,-0.179 m -0.765,0.421 0.383,-0.242 m -1.097,0.855 0.714,-0.613 m -1.429,1.404 0.715,-0.791 m -1.467,1.773 0.752,-0.982 m -1.492,2.104 0.74,-1.122 m -1.442,2.271 0.702,-1.149 m -1.404,2.373 0.702,-1.224 m -1.48,2.653 0.778,-1.429 m -1.568,2.883 0.79,-1.454 m -1.466,2.755 0.676,-1.301 m -1.365,2.59 0.689,-1.289 m -1.43,2.667 0.741,-1.378 m -1.481,2.73 0.74,-1.352 m -1.492,2.653 0.752,-1.301 m -1.505,2.551 0.753,-1.25 m -1.48,2.386 0.727,-1.136 m -1.454,2.195 0.727,-1.059 m -2.258,2.934 1.531,-1.875 m -2.985,3.24 1.454,-1.365 m -2.194,1.875 0.74,-0.51 m -1.479,0.906 0.739,-0.396 m -1.455,0.638 0.716,-0.242 m -1.43,0.382 0.714,-0.14 m -1.083,0.153 0.369,-0.013 m -0.752,0 0.383,0.013 m -0.753,-0.064 0.37,0.051 m -0.753,-0.127 0.383,0.076 m -1.072,-0.319 0.689,0.243 m -1.378,-0.6 0.689,0.357 m -2.22,-1.518 1.531,1.161 m -2.959,-2.704 1.428,1.543 m -2.219,-2.589 0.791,1.046 m -1.595,-2.22 0.804,1.174 m -1.519,-2.309 0.715,1.135 m -1.429,-2.373 0.714,1.238 m -1.454,-2.59 0.74,1.352 m -1.479,-2.794 0.739,1.442 m -1.492,-2.972 0.753,1.53 m -1.519,-3.138 0.766,1.608 m -1.493,-3.215 0.727,1.607 m -1.454,-3.253 0.727,1.646 m -1.403,-3.202 0.676,1.556 m -1.365,-3.125 0.689,1.569 m -1.467,-3.406 0.778,1.837 m -1.556,-3.521 0.778,1.684 m -1.531,0.089 0.753,-1.773 m -1.493,3.546 0.74,-1.773 m -1.442,3.393 0.702,-1.62 m -1.39,3.215 0.688,-1.595 m -1.454,3.292 0.766,-1.697 m -1.518,3.342 0.752,-1.645 m -1.48,3.176 0.728,-1.531 m -1.455,2.998 0.727,-1.467 m -1.479,2.947 0.752,-1.48 m -1.518,2.871 0.766,-1.391 m -1.467,2.577 0.701,-1.186 m -1.39,2.296 0.689,-1.11 m -2.259,3.278 1.57,-2.168 m -2.922,3.635 1.352,-1.467 m -2.946,2.692 1.594,-1.225 m -2.258,1.57 0.664,-0.345 m -1.34,0.587 0.676,-0.242 m -1.033,0.318 0.357,-0.076 m -0.727,0.14 0.37,-0.064 m -0.74,0.077 0.37,-0.013 m -0.74,0 0.37,0.013 m -0.753,-0.064 0.383,0.051 m -0.765,-0.127 0.382,0.076 m -0.765,-0.191 0.383,0.115 m -0.766,-0.268 0.383,0.153 m -1.148,-0.561 0.765,0.408 m -1.531,-0.944 0.766,0.536 m -2.118,-1.812 1.352,1.276 m -2.883,-3.164 1.531,1.888 m -2.283,-2.959 0.752,1.071 m -1.492,-2.233 0.74,1.162 m -1.493,-2.412 0.753,1.25 m -1.505,-2.551 0.752,1.301 m -1.48,-2.628 0.728,1.327 m -1.442,-2.666 0.714,1.339 m -1.415,-2.666 0.701,1.327 m -1.403,-2.653 0.702,1.326 m -1.455,-2.742 0.753,1.416 m -1.506,-2.794 0.753,1.378 m -1.518,-2.692 0.765,1.314 m -1.518,-2.551 0.753,1.237 m -1.505,-2.36 0.752,1.123 m -1.505,-2.106 0.753,0.983 m -1.429,-1.709 0.676,0.726 m -1.34,-1.288 0.664,0.562 m -1.059,-0.817 0.395,0.255 m -0.778,-0.434 0.383,0.179 m -0.574,-0.242 0.191,0.063 m -0.382,-0.115 0.191,0.052 m -0.383,-0.077 0.192,0.025 m -0.383,-0.038 0.191,0.013" />
          <path
             inkscape:connector-curvature="0"
             id="path4854"
             style="fill:none;stroke:#231f20;stroke-width:0.90899998;stroke-linecap:round;stroke-linejoin:round;stroke-miterlimit:10;stroke-dasharray:none;stroke-opacity:1"
             d="m 381.077,707.999 1.531,-0.013 m -2.96,0.051 1.429,-0.038 m -2.921,0.166 1.492,-0.128 m -2.896,0.344 1.404,-0.216 m -2.972,0.561 1.568,-0.345 m -2.933,0.754 1.365,-0.409 m -2.846,0.97 1.481,-0.561 m -2.986,1.237 1.505,-0.676 m -2.959,1.441 1.454,-0.765 m -2.985,1.645 1.531,-0.88 m -2.985,1.786 1.454,-0.906 m -2.933,1.876 1.479,-0.97 m -2.909,1.926 1.43,-0.956 m -2.935,1.977 1.505,-1.021 m -2.883,1.94 1.378,-0.919 m -2.909,1.901 1.531,-0.982 m -2.959,1.849 1.428,-0.867 m -3.023,1.735 1.595,-0.868 m -3.024,1.569 1.429,-0.701 m -2.908,1.301 1.479,-0.6 m -2.998,1.097 1.519,-0.497 m -2.973,0.842 1.454,-0.345 m -2.13,0.46 0.676,-0.115 m -1.365,0.204 0.689,-0.089 m -1.467,0.153 0.778,-0.064 m -1.556,0.077 0.778,-0.013 m -1.531,-0.013 0.753,0.026 m -1.493,-0.077 0.74,0.051 m -1.442,-0.14 0.702,0.089 m -1.39,-0.204 0.688,0.115 m -2.206,-0.485 1.518,0.37 m -2.973,-0.855 1.455,0.485 m -2.973,-1.11 1.518,0.625 m -2.908,-1.301 1.39,0.676 m -2.96,-1.544 1.57,0.868 m -2.922,-1.684 1.352,0.816 m -2.946,-1.836 1.594,1.02 m -2.934,-1.913 1.34,0.893 m -2.807,-1.889 1.467,0.996 m -2.998,-2.029 1.531,1.033 m -3.062,-2.028 1.531,0.995 m -2.883,-1.837 1.352,0.842 m -2.883,-1.722 1.531,0.88 m -3.023,-1.658 1.492,0.778 m -2.997,-1.454 1.505,0.676 m -2.947,-1.225 1.442,0.549 m -2.845,-0.97 1.403,0.421 m -2.909,-0.766 1.506,0.345 m -3.024,-0.561 1.518,0.216 m -3.023,-0.344 1.505,0.128 m -2.845,-0.166 1.34,0.038 m -2.883,-0.051 1.543,0.013" />
          <path
             inkscape:connector-curvature="0"
             id="path4856"
             style="fill:none;stroke:#231f20;stroke-width:0.29800001;stroke-linecap:round;stroke-linejoin:round;stroke-miterlimit:10;stroke-dasharray:none;stroke-opacity:1"
             d="m 347.284,681.911 0,51.028" />
          <path
             inkscape:connector-curvature="0"
             id="path4858"
             style="fill:none;stroke:#231f20;stroke-width:0.12800001;stroke-linecap:round;stroke-linejoin:round;stroke-miterlimit:10;stroke-dasharray:none;stroke-opacity:1"
             d="m 347.004,683.059 0.28,0 m -0.28,1.786 0.28,0 m -0.28,1.773 0.28,0 m -0.28,1.786 0.28,0 m -0.561,1.786 0.561,0 m -0.28,1.774 0.28,0 m -0.28,1.785 0.28,0 m -0.28,1.774 0.28,0 m -0.28,1.785 0.28,0 m -0.561,1.774 0.561,0 m -0.28,1.786 0.28,0 m -0.28,1.773 0.28,0 m -0.28,1.786 0.28,0 m -0.28,1.774 0.28,0 m -0.561,1.785 0.561,0 m -0.28,1.774 0.28,0 m -0.28,1.786 0.28,0 m -0.28,1.786 0.28,0 m -0.28,1.772 0.28,0 m -0.561,1.787 0.561,0 m -0.28,1.773 0.28,0 m -0.28,1.786 0.28,0 m -0.28,1.773 0.28,0 m -0.28,1.786 0.28,0 m -0.561,1.773 0.561,0 m -0.28,1.786 0.28,0 m -0.28,1.773 0.28,0 m -0.28,1.786 0.28,0 m -0.28,1.786 0.28,0" />
          <path
             inkscape:connector-curvature="0"
             id="path4860"
             style="fill:none;stroke:#231f20;stroke-width:0.29800001;stroke-linecap:round;stroke-linejoin:round;stroke-miterlimit:10;stroke-dasharray:none;stroke-opacity:1"
             d="m 311.96,707.986 70.648,0" />
        </g>
      </g>
      <path
         inkscape:connector-curvature="0"
         id="path4862"
         style="fill:none;stroke:#231f20;stroke-width:0.12800001;stroke-linecap:round;stroke-linejoin:round;stroke-miterlimit:10;stroke-dasharray:none;stroke-opacity:1"
         d="m 311.96,707.565 0,0.421 m 1.416,-0.217 0,0.217 m 1.403,-0.217 0,0.217 m 1.416,-0.217 0,0.217 m 1.416,-0.217 0,0.217 m 1.416,-0.421 0,0.421 m 1.404,-0.217 0,0.217 m 1.416,-0.217 0,0.217 m 1.416,-0.217 0,0.217 m 1.416,-0.217 0,0.217 m 1.403,-0.421 0,0.421 m 1.416,-0.217 0,0.217 m 1.416,-0.217 0,0.217 m 1.416,-0.217 0,0.217 m 1.416,-0.217 0,0.217 m 1.403,-0.421 0,0.421 m 1.416,-0.217 0,0.217 m 1.416,-0.217 0,0.217 m 1.416,-0.217 0,0.217 m 1.404,-0.217 0,0.217 m 1.416,-0.421 0,0.421 m 1.416,-0.217 0,0.217 m 1.415,-0.217 0,0.217 m 1.404,-0.217 0,0.217 m 1.416,-0.217 0,0.217 m 2.832,-0.217 0,0.217 m 1.416,-0.217 0,0.217 m 1.403,-0.217 0,0.217 m 1.416,-0.217 0,0.217 m 1.416,-0.421 0,0.421 m 1.416,-0.217 0,0.217 m 1.404,-0.217 0,0.217 m 1.416,-0.217 0,0.217 m 1.416,-0.217 0,0.217 m 1.416,-0.421 0,0.421 m 1.403,-0.217 0,0.217 m 1.416,-0.217 0,0.217 m 1.416,-0.217 0,0.217 m 1.416,-0.217 0,0.217 m 1.416,-0.421 0,0.421 m 1.404,-0.217 0,0.217 m 1.415,-0.217 0,0.217 m 1.416,-0.217 0,0.217 m 1.416,-0.217 0,0.217 m 1.404,-0.421 0,0.421 m 1.415,-0.217 0,0.217 m 1.417,-0.217 0,0.217 m 1.416,-0.217 0,0.217 m 1.403,-0.217 0,0.217 m 1.416,-0.421 0,0.421" />
      <text
         id="text4864"
         style="font-variant:normal;font-weight:normal;font-size:1.69669998px;font-family:Helvetica;-inkscape-font-specification:Helvetica;writing-mode:lr-tb;fill:#231f20;fill-opacity:1;fill-rule:nonzero;stroke:none"
         transform="matrix(1,0,0,-1,344.5159,689.5398)">
        <tspan
           id="tspan4866"
           sodipodi:role="line"
           y="0"
           x="0 0.94336522">–2</tspan>
        <tspan
           id="tspan4868"
           sodipodi:role="line"
           y="-8.8915567"
           x="0.28063419 1.2239994">–1</tspan>
        <tspan
           id="tspan4870"
           y="-17.145662"
           x="1.0202258">0</tspan>
        <tspan
           id="tspan4872"
           y="-26.701138"
           x="1.3139244">1</tspan>
        <tspan
           id="tspan4874"
           y="-35.593033"
           x="1.0458459">2</tspan>
        <tspan
           id="tspan4876"
           sodipodi:role="line"
           y="-16.546558"
           x="-33.398861 -32.455494 -27.275301 -26.331936 -25.388571 -24.916887 -20.220592 -19.277227 -18.333862 -17.862179 -13.152649 -12.209284 -11.265919 -10.794236 -6.0723195 -5.1289544 -4.1855893 -3.7139065 8.5854721 9.5288372 10.00052 15.640011 16.583206 17.05489 22.708294 23.651659 24.123341 29.763342 30.706707 31.178389 37.775158">–1–0.8–0.6–0.4–0.20.20.40.60.81</tspan>
      </text>
    </g>
  </g>
</svg>
